<?xml version="1.0" encoding="UTF-8"?>
<svg id="Capa_1" data-name="Capa 1" xmlns="http://www.w3.org/2000/svg" viewBox="0 0 1080 1080">
  <defs>
    <style>
      .cls-1 {
        fill: white;
      }

      .cls-1, .cls-2 {
        stroke-width: 0px;
      }

      .cls-3 {
        fill: none;
        stroke: white;
        stroke-linecap: round;
        stroke-miterlimit: 10;
        stroke-width: 10px;
      }

      .cls-2 {
        fill: #c6edf5;
      }
    </style>
  </defs>
  <ellipse class="cls-2" cx="540" cy="532.97" rx="473.11" ry="466.95"/>
  <path class="cls-3" d="M626.92,891.43c76.64-51.89,146.3-177.59,175.34-332.38,25.66-136.78,13.46-263.55-26.11-343.32"/>
  <path class="cls-1" d="M777.81,215.5c2.84,83.66-30.64,175.99-107.84,267.73-46.43,55.18-93.63,82.9-153.37,104.46-76.77,27.7-205.96,34.54-278.37-2.89-30.01-15.51-59.24-37.47-75.97-68.04l-.46-.81c-5.79-11.08-1.19-24.67,10.03-30.39,11.22-5.71,25.01-1.37,30.8,9.71,2.55,4.88,3.12,10.25,2,15.23h0c-7.34,17.35-11.54,40.19,9.16,54.6l6.42,3.58c69.55,37.39,156.92,37.7,232.65,14.85,60.84-18.35,124.59-52.41,178.6-100.26,91.3-80.89,138.72-184.08,140.45-267.77h5.9Z"/>
  <path class="cls-1" d="M480.45,373.23c34.39.41,129.63,71.16,173.29,155.07,1.19,2.28,2.35,4.56,3.48,6.84,43.42,87.25,47.31,188.31,13.33,278.58-4.59,12.18-10.39,24.63-16.67,36.63-7.52,14.39-19.96,26.94-30.95,38.95l4,.76c2.04-1.46,7.85-2.27,9.81-4,22.5-19.79,35.08-57.2,48.37-91.63,33.55-86.86,41.21-185.89-.29-269.33-1.09-2.18-2.2-4.37-3.33-6.55-65.22-125.35-219.22-176.22-276.04-149.35l-.34.18c-4.49,2.46-8.19,6.44-10.24,11.67-3.8,9.72-.16,21.03,8.64,26.79,11.56,7.58,26.87,3.42,33.05-8.4,0,0,18.94-28.6,43.9-26.23h0Z"/>
</svg>